<svg id="图层_1" data-name="图层 1" xmlns="http://www.w3.org/2000/svg" xmlns:xlink="http://www.w3.org/1999/xlink" viewBox="0 0 436 436"><defs><style>.cls-1{fill:#13ae67;}.cls-2{fill:url(#未命名的渐变_4);}.cls-3{fill:url(#未命名的渐变_5);}.cls-4{font-size:78px;fill:#dcdddd;font-family:OPPOSans-B, OPPOSans;}</style><linearGradient id="未命名的渐变_4" x1="396.69" y1="485.57" x2="638.18" y2="521.86" gradientUnits="userSpaceOnUse"><stop offset="0" stop-color="#fff"/><stop offset="0.72" stop-color="#cecece"/></linearGradient><linearGradient id="未命名的渐变_5" x1="460.4" y1="459.98" x2="542.7" y2="542.28" gradientUnits="userSpaceOnUse"><stop offset="0.42" stop-color="#fff"/><stop offset="1" stop-color="#cecece" stop-opacity="0"/></linearGradient></defs><rect class="cls-1" width="436" height="436" rx="9"/><path class="cls-2" d="M658,359.69v-24.8H623.29v24.8h-253l-4.31,7.7V613.83H344V646.1h22v24.79h34.72V646.1h253l4.3-7.69V392h22V359.69ZM623.29,613.83H400.72V392H623.29Z" transform="translate(-294 -294)"/><path class="cls-3" d="M496.17,462.31c-.13-.67-.28-1.35-.45-2.05s-.31-1.45-.45-2.25a44.4,44.4,0,0,0-1-4.45c-.36-1.24-.71-2.32-1.05-3.25l11.5-2.3c.74,2.26,1.4,4.56,2,6.9s1.1,4.8,1.5,7.4h36.3v10.8h-15.1q-6.5,24.5-19.7,39.4a98.57,98.57,0,0,0,16.9,9.8,167.32,167.32,0,0,0,21.5,8.1l-5.7,12.19q-26-9.9-41-22.09-14.49,12.09-39.8,22.4l-6.4-11.81q24.21-8.39,37.6-18.79-13.29-15-20.3-39.2h-14.4v-10.8Zm4.9,42.5q10.71-12,16-31.7h-32.6Q489.78,492.61,501.07,504.81Z" transform="translate(-294 -294)"/><text class="cls-4" transform="translate(229.92 272.54)">A</text></svg>